<svg xmlns="http://www.w3.org/2000/svg" xmlns:xlink="http://www.w3.org/1999/xlink" version="1.1" width="1000" height="1000" viewBox="0 0 1000 1000" xml:space="preserve">
<desc>Created with Fabric.js 3.5.0</desc>
<defs>
</defs>
<rect x="0" y="0" width="100%" height="100%" fill="rgba(255,255,255,0)"/>
<g transform="matrix(35.6419 0 0 35.6419 499.9995 544.2648)" id="256638">
<g style="" vector-effect="non-scaling-stroke">
		<g transform="matrix(1 0 0 1 0 -4)" id="848848">
<circle style="stroke: rgb(0,0,0); stroke-width: 2; stroke-dasharray: none; stroke-linecap: round; stroke-dashoffset: 0; stroke-linejoin: round; stroke-miterlimit: 4; is-custom-font: none; font-file-url: none; fill: none; fill-rule: nonzero; opacity: 1;" cx="0" cy="0" r="7"/>
</g>
		<g transform="matrix(1 0 0 1 0 6.44)" id="244768">
<polyline style="stroke: rgb(0,0,0); stroke-width: 2; stroke-dasharray: none; stroke-linecap: round; stroke-dashoffset: 0; stroke-linejoin: round; stroke-miterlimit: 4; is-custom-font: none; font-file-url: none; fill: none; fill-rule: nonzero; opacity: 1;" points="-3.79,-4.55 -5,4.56 0,1.56 5,4.56 3.79,-4.56 "/>
</g>
</g>
</g>
<g transform="matrix(0.5958 0 0 0.5958 499.4896 406.392)" id="551191">
<path style="stroke: none; stroke-width: 0; stroke-dasharray: none; stroke-linecap: butt; stroke-dashoffset: 0; stroke-linejoin: miter; stroke-miterlimit: 4; is-custom-font: none; font-file-url: none; fill: rgb(0,0,0); fill-rule: nonzero; opacity: 1;" vector-effect="non-scaling-stroke" transform=" translate(-244.6, -244.6)" d="M 177.8 238.1 c 0 4.5 -3.6 8.1 -8.1 8.1 h -30.4 c -4.5 0 -8.1 -3.6 -8.1 -8.1 v -30.4 c 0 -4.5 3.6 -8.1 8.1 -8.1 h 30.4 c 4.5 0 8.1 3.6 8.1 8.1 V 238.1 z M 241.3 207.8 c 0 -4.5 -3.6 -8.1 -8.1 -8.1 h -30.4 c -4.5 0 -8.1 3.6 -8.1 8.1 v 30.4 c 0 4.5 3.6 8.1 8.1 8.1 h 30.4 c 4.5 0 8.1 -3.6 8.1 -8.1 V 207.8 z M 304.8 207.8 c 0 -4.5 -3.6 -8.1 -8.1 -8.1 h -30.4 c -4.5 0 -8.1 3.6 -8.1 8.1 v 30.4 c 0 4.5 3.6 8.1 8.1 8.1 h 30.4 c 4.5 0 8.1 -3.6 8.1 -8.1 V 207.8 z M 177.8 269.6 c 0 -4.5 -3.6 -8.1 -8.1 -8.1 h -30.4 c -4.5 0 -8.1 3.6 -8.1 8.1 V 300 c 0 4.5 3.6 8.1 8.1 8.1 h 30.4 c 4.5 0 8.1 -3.6 8.1 -8.1 V 269.6 z M 241.3 269.6 c 0 -4.5 -3.6 -8.1 -8.1 -8.1 h -30.4 c -4.5 0 -8.1 3.6 -8.1 8.1 V 300 c 0 4.5 3.6 8.1 8.1 8.1 h 30.4 c 4.5 0 8.1 -3.6 8.1 -8.1 V 269.6 z M 296.7 261.5 h -30.4 c -4.5 0 -8.1 3.6 -8.1 8.1 V 300 c 0 4.5 3.6 8.1 8.1 8.1 h 30.4 c 4.5 0 8.1 -3.6 8.1 -8.1 v -30.4 C 304.8 265.1 301.2 261.5 296.7 261.5 z M 106.1 323.3 H 75.8 c -4.5 0 -8.1 3.6 -8.1 8.1 v 30.4 c 0 4.5 3.6 8.1 8.1 8.1 h 30.4 c 4.5 0 8.1 -3.6 8.1 -8.1 v -30.4 C 114.3 326.9 110.6 323.3 106.1 323.3 z M 114.3 269.6 c 0 -4.5 -3.6 -8.1 -8.1 -8.1 H 75.8 c -4.5 0 -8.1 3.6 -8.1 8.1 V 300 c 0 4.5 3.6 8.1 8.1 8.1 h 30.4 c 4.5 0 8.1 -3.6 8.1 -8.1 V 269.6 z M 233.2 323.3 h -30.4 c -4.5 0 -8.1 3.6 -8.1 8.1 v 30.4 c 0 4.5 3.6 8.1 8.1 8.1 h 30.4 c 4.5 0 8.1 -3.6 8.1 -8.1 v -30.4 C 241.3 326.9 237.7 323.3 233.2 323.3 z M 169.7 323.3 h -30.4 c -4.5 0 -8.1 3.6 -8.1 8.1 v 30.4 c 0 4.5 3.6 8.1 8.1 8.1 h 30.4 c 4.5 0 8.1 -3.6 8.1 -8.1 v -30.4 C 177.8 326.9 174.2 323.3 169.7 323.3 z M 360.2 246.3 c 4.5 0 8.1 -3.6 8.1 -8.1 v -30.4 c 0 -4.5 -3.6 -8.1 -8.1 -8.1 h -30.4 c -4.5 0 -8.1 3.6 -8.1 8.1 v 30.4 c 0 4.5 3.6 8.1 8.1 8.1 H 360.2 z M 47.7 435.9 h 230.7 c -3.7 -11.6 -5.8 -24 -5.9 -36.8 H 47.7 c -6 0 -10.8 -4.9 -10.8 -10.8 V 171 h 361.7 v 101.1 c 12.8 0.1 25.2 2 36.8 5.7 V 94.9 c 0 -26.3 -21.4 -47.7 -47.7 -47.7 h -53.4 V 17.8 c 0 -9.6 -7.8 -17.4 -17.4 -17.4 h -27.1 c -9.6 0 -17.4 7.8 -17.4 17.4 v 29.5 H 163 V 17.8 c 0 -9.6 -7.8 -17.4 -17.4 -17.4 h -27.1 c -9.6 0 -17.4 7.8 -17.4 17.4 v 29.5 H 47.7 C 21.4 47.3 0 68.7 0 95 v 293.3 C 0 414.5 21.4 435.9 47.7 435.9 z M 489.2 397.7 c 0 50.3 -40.8 91.1 -91.1 91.1 S 307 448 307 397.7 s 40.8 -91.1 91.1 -91.1 S 489.2 347.4 489.2 397.7 z M 444.1 374.1 c 0 -2.9 -1.1 -5.7 -3.2 -7.7 c -4.3 -4.3 -11.2 -4.3 -15.5 0 L 385.8 406 l -15.2 -15.2 c -4.3 -4.3 -11.2 -4.3 -15.5 0 c -2.1 2.1 -3.2 4.8 -3.2 7.7 c 0 2.9 1.1 5.7 3.2 7.7 l 22.9 22.9 c 4.3 4.3 11.2 4.3 15.5 0 l 47.3 -47.3 C 443 379.8 444.1 377 444.1 374.1 z" stroke-linecap="round"/>
</g>
</svg>