<svg xmlns="http://www.w3.org/2000/svg" xmlns:xlink="http://www.w3.org/1999/xlink" version="1.1" width="1000" height="1000" viewBox="0 0 1000 1000" xml:space="preserve">
<desc>Created with Fabric.js 3.5.0</desc>
<defs>
</defs>
<rect x="0" y="0" width="100%" height="100%" fill="rgba(255,255,255,0)"/>
<g transform="matrix(0.2636 0 0 0.2636 500.0174 535.1422)" id="920581">
<g style="" vector-effect="non-scaling-stroke">
		<g transform="matrix(2.0834 0 0 2.0834 -56.9214 177.5672)" id="517200">
<path style="stroke: none; stroke-width: 1; stroke-dasharray: none; stroke-linecap: butt; stroke-dashoffset: 0; stroke-linejoin: miter; stroke-miterlimit: 4; is-custom-font: none; font-file-url: none; fill: rgb(0,0,0); fill-rule: nonzero; opacity: 1;" transform=" translate(-164.6736, -277.2255)" d="M 156.498 306.469 c -9.166 0 -16.857 -3.767 -21.104 -10.334 c -4.059 -6.28 -4.488 -14.487 -1.174 -22.517 c 2.973 -7.2 8.686 -13.8 16.088 -18.584 c 7.033 -4.547 15.023 -7.052 22.496 -7.052 c 9.166 0 16.857 3.767 21.104 10.334 c 8.041 12.444 1.49 30.497 -14.914 41.101 C 171.959 303.965 163.971 306.469 156.498 306.469 z M 172.805 262.983 c -4.619 0 -9.717 1.651 -14.354 4.649 c -4.795 3.098 -8.572 7.366 -10.365 11.71 c -0.826 2.005 -1.939 5.794 -0.094 8.649 c 1.428 2.21 4.529 3.478 8.506 3.478 c 4.617 0 9.715 -1.651 14.354 -4.649 c 9.816 -6.345 13.391 -15.823 10.457 -20.361 C 179.883 264.251 176.781 262.983 172.805 262.983 z" stroke-linecap="round"/>
</g>
		<g transform="matrix(2.0834 0 0 2.0834 -290.6502 -149.7208)" id="323552">
<path style="stroke: none; stroke-width: 1; stroke-dasharray: none; stroke-linecap: butt; stroke-dashoffset: 0; stroke-linejoin: miter; stroke-miterlimit: 4; is-custom-font: none; font-file-url: none; fill: rgb(0,0,0); fill-rule: nonzero; opacity: 1;" transform=" translate(-52.4865, -120.131)" d="M 52.485 142.775 c -2.66 0 -5.283 -0.467 -7.795 -1.389 c -11.719 -4.298 -17.758 -17.33 -13.459 -29.051 c 3.258 -8.881 11.799 -14.848 21.256 -14.848 c 2.66 0 5.281 0.467 7.795 1.389 c 11.719 4.298 17.758 17.329 13.461 29.049 C 70.485 136.807 61.942 142.775 52.485 142.775 z M 52.486 112.488 c -3.191 0 -6.074 2.014 -7.174 5.012 c -1.449 3.956 0.588 8.354 4.543 9.805 c 0.852 0.313 1.736 0.471 2.629 0.471 c 3.191 0 6.074 -2.015 7.174 -5.014 c 1.451 -3.954 -0.588 -8.352 -4.543 -9.803 C 54.264 112.646 53.379 112.488 52.486 112.488 z" stroke-linecap="round"/>
</g>
		<g transform="matrix(2.0834 0 0 2.0834 -187.4694 -199.6387)" id="749207">
<path style="stroke: none; stroke-width: 1; stroke-dasharray: none; stroke-linecap: butt; stroke-dashoffset: 0; stroke-linejoin: miter; stroke-miterlimit: 4; is-custom-font: none; font-file-url: none; fill: rgb(0,0,0); fill-rule: nonzero; opacity: 1;" transform=" translate(-102.0121, -96.171)" d="M 102.016 118.814 c -2.66 0 -5.281 -0.467 -7.793 -1.389 c -5.678 -2.082 -10.205 -6.25 -12.746 -11.736 c -2.543 -5.487 -2.797 -11.636 -0.715 -17.313 c 3.258 -8.881 11.801 -14.848 21.258 -14.848 c 2.658 0 5.281 0.467 7.793 1.389 c 11.721 4.299 17.758 17.33 13.459 29.049 C 120.016 112.847 111.473 118.814 102.016 118.814 z M 102.02 88.529 c -3.191 0 -6.076 2.015 -7.176 5.013 c -0.701 1.915 -0.617 3.989 0.242 5.841 c 0.858 1.852 2.385 3.258 4.301 3.961 c 0.854 0.313 1.736 0.471 2.629 0.471 c 3.191 0 6.074 -2.014 7.174 -5.012 c 1.449 -3.955 -0.588 -8.352 -4.541 -9.803 C 103.795 88.687 102.91 88.529 102.02 88.529 z" stroke-linecap="round"/>
</g>
		<g transform="matrix(2.0834 0 0 2.0834 -71.7061 -192.976)" id="328197">
<path style="stroke: none; stroke-width: 1; stroke-dasharray: none; stroke-linecap: butt; stroke-dashoffset: 0; stroke-linejoin: miter; stroke-miterlimit: 4; is-custom-font: none; font-file-url: none; fill: rgb(0,0,0); fill-rule: nonzero; opacity: 1;" transform=" translate(-157.5772, -99.369)" d="M 157.576 122.012 c -2.66 0 -5.281 -0.467 -7.795 -1.389 c -5.676 -2.082 -10.203 -6.25 -12.746 -11.737 c -2.541 -5.486 -2.795 -11.635 -0.711 -17.313 c 3.256 -8.88 11.797 -14.847 21.254 -14.847 c 2.66 0 5.281 0.467 7.793 1.389 c 5.678 2.082 10.205 6.25 12.748 11.737 c 2.541 5.486 2.795 11.635 0.713 17.312 C 175.574 116.046 167.033 122.012 157.576 122.012 z M 157.578 91.727 c -3.191 0 -6.072 2.014 -7.172 5.012 c -0.703 1.916 -0.617 3.991 0.24 5.842 c 0.857 1.851 2.385 3.258 4.301 3.961 c 0.852 0.313 1.736 0.471 2.629 0.471 c 3.191 0 6.072 -2.014 7.172 -5.012 c 0.703 -1.916 0.617 -3.99 -0.24 -5.842 c -0.857 -1.852 -2.385 -3.258 -4.301 -3.961 C 159.354 91.885 158.469 91.727 157.578 91.727 z" stroke-linecap="round"/>
</g>
		<g transform="matrix(2.0834 0 0 2.0834 31.4877 -145.7467)" id="149796">
<path style="stroke: none; stroke-width: 1; stroke-dasharray: none; stroke-linecap: butt; stroke-dashoffset: 0; stroke-linejoin: miter; stroke-miterlimit: 4; is-custom-font: none; font-file-url: none; fill: rgb(0,0,0); fill-rule: nonzero; opacity: 1;" transform=" translate(-207.109, -122.0385)" d="M 207.104 144.682 c -2.658 0 -5.279 -0.467 -7.789 -1.387 c -11.721 -4.302 -17.758 -17.334 -13.461 -29.052 c 3.258 -8.881 11.799 -14.848 21.256 -14.848 c 2.658 0 5.281 0.467 7.793 1.389 c 11.721 4.298 17.758 17.329 13.461 29.049 C 225.106 138.715 216.563 144.682 207.104 144.682 z M 207.11 114.396 c -3.191 0 -6.074 2.014 -7.174 5.012 c -1.449 3.955 0.588 8.354 4.543 9.805 c 0.85 0.312 1.734 0.47 2.625 0.47 c 3.193 0 6.076 -2.015 7.178 -5.014 c 1.449 -3.954 -0.588 -8.351 -4.543 -9.802 C 208.885 114.554 208 114.396 207.11 114.396 z" stroke-linecap="round"/>
</g>
		<g transform="matrix(2.0834 0 0 2.0834 110.9681 -60.8093)" id="896405">
<path style="stroke: none; stroke-width: 1; stroke-dasharray: none; stroke-linecap: butt; stroke-dashoffset: 0; stroke-linejoin: miter; stroke-miterlimit: 4; is-custom-font: none; font-file-url: none; fill: rgb(0,0,0); fill-rule: nonzero; opacity: 1;" transform=" translate(-245.2588, -162.8075)" d="M 245.264 185.451 c -2.66 0 -5.283 -0.467 -7.795 -1.388 c -5.678 -2.083 -10.205 -6.251 -12.746 -11.737 c -2.543 -5.487 -2.797 -11.636 -0.713 -17.314 c 3.256 -8.881 11.799 -14.848 21.256 -14.848 c 2.658 0 5.279 0.466 7.791 1.387 c 11.723 4.302 17.76 17.334 13.463 29.052 C 263.262 179.484 254.719 185.451 245.264 185.451 z M 245.266 155.165 c -3.191 0 -6.074 2.015 -7.174 5.013 c -0.703 1.916 -0.617 3.99 0.24 5.842 c 0.857 1.852 2.385 3.258 4.301 3.961 c 0.854 0.313 1.738 0.471 2.631 0.471 c 3.189 0 6.072 -2.015 7.174 -5.013 c 1.449 -3.954 -0.59 -8.353 -4.545 -9.804 C 247.043 155.323 246.158 155.165 245.266 155.165 z" stroke-linecap="round"/>
</g>
		<g transform="matrix(2.0834 0 0 2.0834 0.0029 0.0021)" id="463966">
<path style="stroke: none; stroke-width: 1; stroke-dasharray: none; stroke-linecap: butt; stroke-dashoffset: 0; stroke-linejoin: miter; stroke-miterlimit: 4; is-custom-font: none; font-file-url: none; fill: rgb(0,0,0); fill-rule: nonzero; opacity: 1;" transform=" translate(-191.9953, -191.9952)" d="M 379.555 40.674 c -0.002 -0.006 -0.004 -0.012 -0.006 -0.018 v 0.001 c -0.172 -0.74 -0.459 -1.467 -0.869 -2.154 c -2.129 -3.554 -6.734 -4.711 -10.289 -2.581 c -3.414 2.045 -81.428 49.56 -65.078 106.212 c -2.303 2.612 -5.746 6.697 -9.877 12.139 c -12.055 -35.523 -39.877 -65.37 -79.85 -85.126 c -30.752 -15.198 -62.957 -23.37 -93.135 -23.632 c -27.957 -0.281 -53.754 6.138 -74.625 18.453 C 18.08 80.34 1.418 106.115 0.113 134.685 c -2.799 61.28 46.803 77.763 79.627 88.669 c 6.412 2.131 12.469 4.144 17.309 6.206 c 6.107 2.602 9.676 5.912 10.605 9.84 c 1.596 6.741 -3.951 15.318 -6.408 18.298 c -15.777 15.847 -15.512 39.639 0.699 57.988 c 12.84 14.536 33.117 22.8 55.82 22.8 c 0.508 0 1.021 -0.005 1.533 -0.013 c 24.582 -0.401 51.061 -10.297 77.137 -28.72 c -0.414 10.48 -0.199 21.348 0.822 32.563 c 0.25 2.747 1.986 5.135 4.523 6.218 c 0.947 0.404 1.949 0.602 2.943 0.602 c 1.672 0 3.326 -0.558 4.678 -1.636 c 49.172 -39.201 73.516 -88.893 85.279 -123.675 c 9.99 -29.543 12.842 -53.26 13.629 -62.703 C 400.242 133.595 380.447 44.554 379.555 40.674 z M 238.016 289.782 c -0.486 0.396 -0.975 0.789 -1.461 1.173 c -26.471 20.88 -53.27 32.125 -77.5 32.52 c -18.938 0.299 -35.648 -6.148 -45.869 -17.72 c -11.109 -12.577 -11.557 -27.353 -1.139 -37.645 c 0.145 -0.142 0.285 -0.292 0.416 -0.445 c 1.385 -1.609 13.412 -16.164 9.809 -31.636 c -2.064 -8.861 -8.572 -15.682 -19.344 -20.27 c -5.406 -2.304 -11.746 -4.41 -18.457 -6.641 c -31.924 -10.607 -71.654 -23.81 -69.373 -73.751 c 1.086 -23.761 14.705 -44.53 38.35 -58.481 c 40.514 -23.904 97.894 -21.771 153.492 5.707 c 40.404 19.97 67.064 50.93 75.404 87.419 c -4.742 7.246 -9.787 15.664 -14.748 25.17 C 255.635 218.109 242.66 250.663 238.016 289.782 z M 320.305 219.513 c -10.19 29.947 -30.281 71.623 -68.984 106.68 c -1.451 -52.199 14.754 -95.536 29.334 -123.608 c 3.457 -6.657 6.977 -12.764 10.398 -18.288 l 35.27 15.058 C 324.699 205.646 322.721 212.412 320.305 219.513 z M 329.723 184.497 l -30.293 -12.933 c 6.014 -8.605 11.176 -14.914 14.355 -18.597 l 19.439 8.301 C 332.766 166.113 331.778 174.203 329.723 184.497 z M 340.727 148.162 l -22.881 -9.77 c -10.521 -35.644 30.074 -69.751 49.02 -83.378 C 370.201 78.124 373.813 131.079 340.727 148.162 z" stroke-linecap="round"/>
</g>
</g>
</g>
<g transform="matrix(24.6073 0 0 24.6073 500 627.7465)" id="911862">
<g style="" vector-effect="non-scaling-stroke">
		<g transform="matrix(1 0 0 1 0 -4)" id="399782">
<circle style="stroke: rgb(0,0,0); stroke-width: 2; stroke-dasharray: none; stroke-linecap: round; stroke-dashoffset: 0; stroke-linejoin: round; stroke-miterlimit: 4; is-custom-font: none; font-file-url: none; fill: none; fill-rule: nonzero; opacity: 1;" cx="0" cy="0" r="7"/>
</g>
		<g transform="matrix(1 0 0 1 0 6.44)" id="246356">
<polyline style="stroke: rgb(0,0,0); stroke-width: 2; stroke-dasharray: none; stroke-linecap: round; stroke-dashoffset: 0; stroke-linejoin: round; stroke-miterlimit: 4; is-custom-font: none; font-file-url: none; fill: none; fill-rule: nonzero; opacity: 1;" points="-3.79,-4.55 -5,4.56 0,1.56 5,4.56 3.79,-4.56 "/>
</g>
</g>
</g>
</svg>