<svg xmlns="http://www.w3.org/2000/svg" xmlns:xlink="http://www.w3.org/1999/xlink" version="1.1" width="1000" height="1000" viewBox="0 0 1000 1000" xml:space="preserve">
<desc>Created with Fabric.js 3.5.0</desc>
<defs>
</defs>
<rect x="0" y="0" width="100%" height="100%" fill="rgba(255,255,255,0)"/>
<g transform="matrix(7.6781 0 0 7.6781 500 402.7852)" id="298185">
<path style="stroke: none; stroke-width: 0; stroke-dasharray: none; stroke-linecap: butt; stroke-dashoffset: 0; stroke-linejoin: miter; stroke-miterlimit: 4; is-custom-font: none; font-file-url: none; fill: rgb(0,0,0); fill-rule: nonzero; opacity: 1;" vector-effect="non-scaling-stroke" transform=" translate(-16.0005, -15.9995)" d="M 12.759 16.089 c 0.241 0.248 0.575 0.404 0.946 0.411 l 0.001 0 h 0.001 c 0.003 0 0.007 0 0.011 0 c 0.298 0 0.568 -0.12 0.765 -0.315 l 1.703 -1.703 c 0.194 -0.196 0.315 -0.466 0.315 -0.765 c 0 -0.004 0 -0.008 0 -0.012 v 0.001 c -0.007 -0.372 -0.163 -0.705 -0.41 -0.946 l -0.564 -0.564 q 0.075 -0.169 0.141 -0.341 l 0.797 0.004 c 0.023 0.002 0.049 0.002 0.076 0.002 c 0.649 0 1.178 -0.51 1.209 -1.151 l 0 -0.003 v -2.407 c -0.031 -0.644 -0.561 -1.154 -1.209 -1.154 c -0.027 0 -0.053 0.001 -0.079 0.003 l 0.004 0 h -0.797 c -0.044 -0.116 -0.092 -0.23 -0.142 -0.343 l 0.567 -0.561 c 0.251 -0.223 0.408 -0.547 0.408 -0.908 c 0 -0.314 -0.119 -0.6 -0.315 -0.816 l 0.001 0.001 l -1.702 -1.702 c -0.215 -0.195 -0.501 -0.314 -0.815 -0.314 c -0.361 0 -0.685 0.158 -0.908 0.408 l -0.001 0.001 l -0.564 0.564 q -0.169 -0.075 -0.341 -0.141 l 0.004 -0.798 c 0.002 -0.023 0.002 -0.049 0.002 -0.076 c 0 -0.649 -0.51 -1.178 -1.151 -1.209 l -0.003 0 h -2.408 c -0.644 0.031 -1.154 0.561 -1.154 1.209 c 0 0.027 0.001 0.053 0.003 0.079 l 0 -0.004 v 0.797 c -0.116 0.044 -0.229 0.091 -0.343 0.142 l -0.561 -0.567 c -0.223 -0.252 -0.547 -0.411 -0.908 -0.411 c -0.314 0 -0.601 0.12 -0.816 0.317 l 0.001 -0.001 l -1.702 1.702 c -0.195 0.199 -0.316 0.472 -0.316 0.773 c 0 0.062 0.005 0.122 0.015 0.181 l -0.001 -0.006 c 0.049 0.306 0.191 0.572 0.396 0.775 l 0 0 l 0.564 0.563 c -0.051 0.114 -0.099 0.228 -0.143 0.345 l -0.797 -0.004 c -0.023 -0.002 -0.05 -0.002 -0.076 -0.002 c -0.648 0 -1.177 0.51 -1.209 1.15 l 0 0.003 v 2.408 c 0.031 0.644 0.561 1.154 1.209 1.154 c 0.027 0 0.053 -0.001 0.079 -0.003 l -0.004 0 h 0.797 c 0.044 0.116 0.092 0.229 0.142 0.343 l -0.566 0.561 c -0.248 0.242 -0.403 0.577 -0.409 0.948 v 0.001 c 0 0.004 0 0.008 0 0.012 c 0 0.297 0.12 0.566 0.315 0.761 l 1.702 1.703 c 0.196 0.194 0.466 0.314 0.765 0.314 c 0.004 0 0.008 0 0.011 0 h 0 c 0.372 -0.007 0.705 -0.163 0.946 -0.41 l 0 0 l 0.564 -0.563 c 0.114 0.051 0.228 0.098 0.344 0.143 l -0.004 0.796 c -0.002 0.023 -0.002 0.049 -0.002 0.076 c 0 0.649 0.51 1.178 1.151 1.209 l 0.003 0 h 2.407 c 0.644 -0.031 1.154 -0.561 1.154 -1.209 c 0 -0.027 -0.001 -0.053 -0.003 -0.079 l 0 0.004 v -0.798 c 0.116 -0.044 0.23 -0.092 0.343 -0.142 z M 10.356 16.25 h -1.709 l 0.006 -1.073 c 0 -0.018 -0.009 -0.033 -0.01 -0.051 c -0.015 -0.105 -0.041 -0.2 -0.077 -0.29 l 0.003 0.008 c -0.059 -0.126 -0.153 -0.227 -0.27 -0.293 l -0.003 -0.002 c -0.043 -0.029 -0.093 -0.055 -0.145 -0.075 l -0.005 -0.002 c -0.014 -0.005 -0.024 -0.016 -0.039 -0.02 c -0.425 -0.122 -0.795 -0.279 -1.14 -0.475 l 0.026 0.013 c -0.099 -0.054 -0.218 -0.086 -0.344 -0.086 c 0 0 -0.001 0 -0.001 0 h 0 c -0.018 0 -0.032 0.004 -0.051 0.004 c -0.185 0.006 -0.351 0.08 -0.477 0.197 l 0 0 l -0.025 0.01 l -0.725 0.799 l -1.246 -1.246 l 0.763 -0.755 l 0.011 -0.027 c 0.115 -0.123 0.189 -0.287 0.197 -0.467 l 0 -0.002 c 0.001 -0.021 0.005 -0.037 0.005 -0.058 c 0 -0.001 0 -0.002 0 -0.003 c 0 -0.126 -0.032 -0.245 -0.088 -0.348 l 0.002 0.004 c -0.183 -0.319 -0.34 -0.687 -0.453 -1.075 l -0.009 -0.036 c -0.004 -0.015 -0.016 -0.026 -0.021 -0.041 c -0.042 -0.095 -0.091 -0.177 -0.149 -0.253 l 0.002 0.003 c -0.033 -0.034 -0.069 -0.065 -0.108 -0.092 l -0.002 -0.002 c -0.034 -0.028 -0.071 -0.053 -0.111 -0.075 l -0.004 -0.002 c -0.038 -0.018 -0.084 -0.033 -0.131 -0.044 l -0.005 -0.001 c -0.042 -0.014 -0.091 -0.024 -0.142 -0.029 l -0.003 0 c -0.017 -0.001 -0.031 -0.01 -0.048 -0.01 h -1.077 v -1.709 l 1.077 0.005 c 0.152 -0.004 0.292 -0.054 0.407 -0.136 l -0.002 0.002 c 0.024 -0.014 0.045 -0.028 0.064 -0.043 l -0.002 0.001 c 0.109 -0.088 0.191 -0.206 0.235 -0.34 l 0.001 -0.005 c 0.003 -0.01 0.014 -0.015 0.017 -0.025 c 0.122 -0.424 0.279 -0.793 0.475 -1.137 l -0.013 0.025 c 0.054 -0.1 0.086 -0.219 0.086 -0.345 c 0 0 0 0 0 0 v 0 c 0.001 -0.021 -0.004 -0.037 -0.005 -0.058 c -0.008 -0.182 -0.08 -0.345 -0.195 -0.469 l 0 0 l -0.011 -0.027 l -0.762 -0.762 l 1.208 -1.208 l 0.755 0.763 c 0.018 0.018 0.047 0.012 0.066 0.028 c 0.12 0.109 0.277 0.18 0.45 0.19 l 0.002 0 l 0.017 0.005 c 0.135 0 0.261 -0.036 0.37 -0.098 l -0.004 0.002 c 0.318 -0.183 0.686 -0.34 1.074 -0.452 l 0.036 -0.009 c 0.015 -0.004 0.026 -0.016 0.041 -0.021 c 0.054 -0.021 0.1 -0.045 0.143 -0.073 l -0.003 0.002 c 0.118 -0.077 0.214 -0.178 0.282 -0.298 l 0.002 -0.004 c 0.017 -0.037 0.032 -0.081 0.042 -0.126 l 0.001 -0.005 c 0.014 -0.043 0.025 -0.094 0.03 -0.147 l 0 -0.003 c 0.001 -0.016 0.01 -0.031 0.01 -0.047 v -1.077 h 1.71 l -0.006 1.073 c 0 0.017 0.009 0.032 0.01 0.049 c 0.005 0.055 0.015 0.106 0.031 0.155 l -0.001 -0.005 c 0.012 0.05 0.027 0.094 0.045 0.136 l -0.002 -0.005 c 0.024 0.045 0.05 0.084 0.08 0.12 l -0.001 -0.001 c 0.028 0.04 0.058 0.076 0.092 0.108 l 0 0 c 0.033 0.027 0.069 0.053 0.108 0.074 l 0.004 0.002 c 0.04 0.027 0.087 0.051 0.135 0.07 l 0.005 0.002 c 0.015 0.005 0.026 0.017 0.042 0.021 c 0.424 0.122 0.792 0.278 1.136 0.473 l -0.026 -0.013 c 0.101 0.06 0.222 0.096 0.352 0.096 c 0.187 0 0.357 -0.074 0.482 -0.195 l 0 0 c 0.019 -0.015 0.046 -0.009 0.063 -0.026 l 0.762 -0.762 l 1.209 1.209 l -0.763 0.755 l -0.011 0.027 c -0.115 0.123 -0.188 0.286 -0.196 0.465 l 0 0.002 c -0.001 0.021 -0.006 0.038 -0.005 0.059 c 0 0.001 0 0.002 0 0.002 c 0 0.126 0.032 0.244 0.088 0.348 l -0.002 -0.004 c 0.182 0.319 0.34 0.688 0.453 1.077 l 0.009 0.037 c 0.003 0.011 0.015 0.016 0.018 0.026 c 0.046 0.138 0.128 0.254 0.234 0.341 l 0.001 0.001 c 0.018 0.014 0.04 0.028 0.061 0.042 l 0.003 0.002 c 0.112 0.081 0.252 0.13 0.403 0.134 l 0.001 0 h 1.077 v 1.709 l -1.077 -0.005 c -0.016 0 -0.029 0.008 -0.044 0.009 c -0.06 0.005 -0.115 0.017 -0.168 0.034 l 0.005 -0.001 c -0.045 0.011 -0.084 0.024 -0.121 0.041 l 0.005 -0.002 c -0.049 0.026 -0.091 0.055 -0.13 0.088 l 0.001 -0.001 c -0.037 0.026 -0.069 0.054 -0.099 0.085 l 0 0 c -0.028 0.034 -0.055 0.072 -0.077 0.113 l -0.002 0.004 c -0.026 0.039 -0.049 0.084 -0.068 0.131 l -0.002 0.005 c -0.005 0.015 -0.017 0.026 -0.022 0.042 c -0.121 0.423 -0.278 0.791 -0.473 1.135 l 0.013 -0.025 c -0.054 0.1 -0.086 0.218 -0.086 0.344 c 0 0.001 0 0.002 0 0.003 v 0 c -0.001 0.019 0.003 0.034 0.004 0.053 c 0.007 0.184 0.08 0.349 0.196 0.473 l 0 0 l 0.011 0.026 l 0.799 0.724 l -1.245 1.246 l -0.757 -0.763 l -0.025 -0.01 c -0.123 -0.116 -0.288 -0.19 -0.47 -0.197 l -0.001 0 c -0.02 -0.001 -0.035 -0.005 -0.055 -0.005 c -0.127 0 -0.246 0.032 -0.35 0.088 l 0.004 -0.002 c -0.319 0.182 -0.688 0.34 -1.077 0.453 l -0.037 0.009 c -0.017 0.005 -0.028 0.017 -0.045 0.023 c -0.095 0.043 -0.177 0.092 -0.252 0.15 l 0.003 -0.002 c -0.031 0.031 -0.059 0.064 -0.085 0.1 l -0.002 0.002 c -0.03 0.036 -0.058 0.077 -0.081 0.12 l -0.002 0.004 c -0.016 0.036 -0.031 0.079 -0.041 0.123 l -0.001 0.005 c -0.015 0.044 -0.025 0.096 -0.03 0.149 l 0 0.003 c -0.001 0.016 -0.009 0.03 -0.009 0.046 z M 12.395 9.502 c 0 0 0 0 0 0 c 0 -1.598 -1.295 -2.893 -2.893 -2.893 s -2.893 1.295 -2.893 2.893 c 0 1.598 1.295 2.893 2.893 2.893 c 0 0 0 0 0 0 v 0 c 1.597 -0.002 2.89 -1.296 2.893 -2.892 v 0 z M 9.502 10.895 c 0 0 0 0 0 0 c -0.769 0 -1.393 -0.623 -1.393 -1.393 s 0.623 -1.393 1.393 -1.393 c 0.769 0 1.393 0.623 1.393 1.393 c 0 0 0 0 0 0 v 0 c -0.001 0.769 -0.624 1.391 -1.392 1.393 h 0 z M 29.428 19.578 h -0.877 c -0.054 -0.143 -0.113 -0.284 -0.176 -0.423 l 0.623 -0.616 c 0.259 -0.229 0.421 -0.562 0.421 -0.933 c 0 -0.321 -0.121 -0.613 -0.32 -0.834 l 0.001 0.001 l -1.809 -1.809 c -0.201 -0.198 -0.477 -0.32 -0.782 -0.32 c -0.004 0 -0.008 0 -0.012 0 h 0.001 c -0.382 0.008 -0.725 0.167 -0.972 0.421 l -0.621 0.621 q -0.208 -0.094 -0.42 -0.174 l 0.004 -0.878 c 0.002 -0.024 0.003 -0.053 0.003 -0.081 c 0 -0.663 -0.521 -1.205 -1.175 -1.238 l -0.003 0 h -2.557 c -0.659 0.033 -1.18 0.576 -1.18 1.24 c 0 0.028 0.001 0.056 0.003 0.084 l 0 -0.004 v 0.877 c -0.142 0.054 -0.282 0.112 -0.42 0.175 l -0.619 -0.623 c -0.247 -0.254 -0.59 -0.414 -0.97 -0.422 l -0.001 0 h -0.001 c -0.004 0 -0.008 0 -0.012 0 c -0.304 0 -0.579 0.122 -0.78 0.32 l -1.81 1.809 c -0.198 0.219 -0.319 0.51 -0.319 0.83 c 0 0.371 0.163 0.704 0.421 0.931 l 0.001 0.001 l 0.621 0.621 c -0.063 0.139 -0.122 0.28 -0.176 0.424 l -0.877 -0.004 c -0.024 -0.002 -0.053 -0.003 -0.081 -0.003 c -0.663 0 -1.205 0.521 -1.238 1.175 l 0 0.003 v 2.559 c 0.033 0.658 0.575 1.178 1.238 1.178 c 0.029 0 0.057 -0.001 0.085 -0.003 l -0.004 0 h 0.877 c 0.054 0.142 0.112 0.282 0.175 0.421 l -0.622 0.618 c -0.255 0.248 -0.415 0.592 -0.422 0.973 l 0 0.001 c 0 0.004 0 0.008 0 0.013 c 0 0.304 0.122 0.579 0.32 0.778 l 1.809 1.809 c 0.2 0.199 0.477 0.322 0.782 0.322 c 0.003 0 0.007 0 0.01 0 h 0 c 0.383 -0.008 0.727 -0.17 0.974 -0.425 l 0 0 l 0.618 -0.619 c 0.14 0.064 0.281 0.122 0.425 0.176 l -0.004 0.876 c -0.002 0.024 -0.003 0.053 -0.003 0.081 c 0 0.663 0.521 1.204 1.175 1.237 l 0.003 0 h 2.557 c 0.659 -0.033 1.18 -0.575 1.18 -1.239 c 0 -0.028 -0.001 -0.056 -0.003 -0.083 l 0 0.004 v -0.878 c 0.142 -0.054 0.282 -0.112 0.422 -0.175 l 0.619 0.626 c 0.248 0.252 0.59 0.41 0.969 0.418 l 0.001 0 h 0.006 c 0.001 0 0.003 0 0.004 0 c 0.304 0 0.58 -0.122 0.781 -0.32 l 0 0 l 1.805 -1.807 c 0.2 -0.2 0.324 -0.477 0.324 -0.783 c 0 -0.001 0 -0.003 0 -0.004 v 0 c -0.006 -0.384 -0.166 -0.73 -0.42 -0.98 l -0.622 -0.622 c 0.063 -0.138 0.12 -0.277 0.173 -0.419 l 0.878 0.004 c 0.024 0.002 0.053 0.003 0.081 0.003 c 0.663 0 1.204 -0.521 1.237 -1.175 l 0 -0.003 v -2.557 c -0.033 -0.658 -0.574 -1.179 -1.237 -1.179 c -0.029 0 -0.057 0.001 -0.085 0.003 l 0.004 0 z M 29.246 22.986 l -1.192 -0.006 c -0.014 0 -0.025 0.007 -0.038 0.008 c -0.063 0.005 -0.121 0.017 -0.176 0.036 l 0.005 -0.001 c -0.135 0.045 -0.25 0.118 -0.344 0.212 v 0 c -0.027 0.033 -0.053 0.07 -0.075 0.109 l -0.002 0.004 c -0.026 0.04 -0.05 0.085 -0.069 0.133 l -0.002 0.005 c -0.006 0.016 -0.018 0.028 -0.023 0.044 c -0.128 0.453 -0.296 0.847 -0.506 1.214 l 0.014 -0.026 c -0.054 0.099 -0.086 0.218 -0.086 0.344 c 0 0.002 0 0.004 0 0.006 v 0 c 0 0.015 0.003 0.027 0.004 0.043 c 0.005 0.186 0.079 0.354 0.198 0.48 l 0 0 l 0.011 0.026 l 0.842 0.842 l -1.35 1.35 l -0.834 -0.842 c -0.008 -0.008 -0.02 -0.004 -0.028 -0.012 c -0.123 -0.115 -0.286 -0.188 -0.467 -0.196 l -0.002 0 c -0.02 -0.001 -0.036 -0.005 -0.056 -0.005 c -0.002 0 -0.003 0 -0.005 0 c -0.125 0 -0.243 0.032 -0.345 0.088 l 0.004 -0.002 c -0.341 0.194 -0.737 0.363 -1.152 0.484 l -0.04 0.01 c -0.017 0.005 -0.028 0.017 -0.044 0.023 c -0.05 0.02 -0.093 0.042 -0.134 0.069 l 0.003 -0.002 c -0.201 0.128 -0.338 0.34 -0.363 0.585 l 0 0.003 c -0.001 0.015 -0.009 0.028 -0.009 0.044 v 1.191 h -1.91 l 0.006 -1.188 c 0 -0.016 -0.008 -0.03 -0.009 -0.046 c -0.005 -0.055 -0.015 -0.105 -0.031 -0.153 l 0.001 0.005 c -0.04 -0.187 -0.157 -0.341 -0.315 -0.43 l -0.003 -0.002 c -0.044 -0.03 -0.093 -0.056 -0.146 -0.076 l -0.005 -0.002 c -0.014 -0.005 -0.024 -0.016 -0.039 -0.02 c -0.454 -0.129 -0.85 -0.298 -1.218 -0.508 l 0.027 0.014 c -0.099 -0.053 -0.216 -0.084 -0.341 -0.084 c -0.001 0 -0.001 0 -0.002 0 h 0 c -0.024 0.001 -0.048 0.003 -0.071 0.006 l 0.003 0 c -0.178 0.009 -0.338 0.08 -0.46 0.192 l 0.001 -0.001 c -0.009 0.008 -0.022 0.004 -0.031 0.013 l -0.841 0.842 l -1.35 -1.35 l 0.844 -0.836 c 0.008 -0.008 0.005 -0.021 0.012 -0.029 c 0.114 -0.123 0.187 -0.285 0.195 -0.464 l 0 -0.002 c 0.001 -0.021 0.006 -0.038 0.005 -0.059 c 0 -0.001 0 -0.002 0 -0.002 c 0 -0.126 -0.032 -0.244 -0.088 -0.348 l 0.002 0.004 c -0.195 -0.341 -0.363 -0.735 -0.484 -1.15 l -0.01 -0.039 c -0.004 -0.016 -0.016 -0.026 -0.021 -0.041 c -0.021 -0.053 -0.045 -0.099 -0.073 -0.142 l 0.002 0.003 c -0.023 -0.042 -0.047 -0.078 -0.075 -0.111 l 0.001 0.001 c -0.1 -0.114 -0.236 -0.195 -0.39 -0.224 l -0.004 -0.001 c -0.027 -0.008 -0.06 -0.015 -0.094 -0.019 l -0.004 0 c -0.022 -0.002 -0.041 -0.013 -0.063 -0.013 h -1.191 v -1.91 l 1.191 0.006 c 0.19 -0.006 0.361 -0.083 0.487 -0.205 l 0 0 c 0.052 -0.052 0.095 -0.114 0.126 -0.182 l 0.002 -0.004 c 0.033 -0.055 0.089 -0.091 0.107 -0.156 c 0.131 -0.455 0.299 -0.85 0.508 -1.219 l -0.014 0.027 c 0.055 -0.1 0.087 -0.219 0.087 -0.345 v 0 c 0.001 -0.019 -0.003 -0.034 -0.004 -0.053 c -0.006 -0.185 -0.08 -0.351 -0.198 -0.476 l 0 0 l -0.009 -0.023 l -0.842 -0.844 l 1.35 -1.35 l 0.836 0.844 c 0.018 0.018 0.045 0.011 0.064 0.027 c 0.123 0.115 0.287 0.188 0.467 0.196 l 0.002 0 c 0 0 0 0 0.001 0 c 0.135 0 0.261 -0.036 0.37 -0.099 l -0.004 0.002 c 0.341 -0.196 0.736 -0.364 1.151 -0.484 l 0.038 -0.01 c 0.015 -0.004 0.026 -0.016 0.041 -0.021 c 0.053 -0.02 0.098 -0.044 0.14 -0.072 l -0.003 0.002 c 0.166 -0.089 0.286 -0.243 0.328 -0.427 l 0.001 -0.004 c 0.015 -0.045 0.026 -0.097 0.031 -0.151 l 0 -0.003 c 0.001 -0.016 0.009 -0.029 0.009 -0.045 v -1.191 h 1.91 l -0.006 1.188 c 0 0.016 0.008 0.028 0.009 0.044 c 0.006 0.065 0.019 0.125 0.039 0.182 l -0.002 -0.005 c 0.008 0.031 0.017 0.056 0.027 0.081 l -0.002 -0.004 c 0.086 0.206 0.258 0.363 0.47 0.426 l 0.005 0.001 c 0.454 0.13 0.848 0.298 1.217 0.507 l -0.027 -0.014 c 0.105 0.06 0.231 0.096 0.366 0.096 c 0 0 0.001 0 0.001 0 h 0 c 0.181 -0.008 0.344 -0.08 0.468 -0.195 l 0 0 c 0.019 -0.015 0.046 -0.009 0.064 -0.026 l 0.842 -0.842 l 1.35 1.35 l -0.844 0.835 l -0.011 0.026 c -0.116 0.123 -0.189 0.287 -0.197 0.468 l 0 0.002 c -0.001 0.02 -0.005 0.036 -0.005 0.056 c 0 0.001 0 0.003 0 0.004 c 0 0.126 0.032 0.245 0.088 0.348 l -0.002 -0.004 c 0.196 0.342 0.365 0.737 0.485 1.153 l 0.009 0.038 c 0.003 0.012 0.016 0.017 0.019 0.028 c 0.046 0.137 0.127 0.253 0.233 0.339 l 0.001 0.001 c 0.019 0.014 0.04 0.029 0.062 0.042 l 0.003 0.002 c 0.113 0.081 0.252 0.131 0.403 0.135 l 0.001 0 h 1.191 z M 22.031 19.004 c 0 0 -0.001 0 -0.001 0 c -1.671 0 -3.026 1.355 -3.026 3.026 s 1.355 3.026 3.026 3.026 c 1.671 0 3.026 -1.354 3.026 -3.025 v 0 c -0.002 -1.671 -1.355 -3.025 -3.025 -3.027 h 0 z M 22.031 23.557 c 0 0 -0.001 0 -0.001 0 c -0.843 0 -1.526 -0.683 -1.526 -1.526 s 0.683 -1.526 1.526 -1.526 c 0.843 0 1.526 0.683 1.526 1.526 c 0 0 0 0.001 0 0.001 v 0 c -0.002 0.842 -0.684 1.524 -1.525 1.525 h 0 z" stroke-linecap="round"/>
</g>
<g transform="matrix(24.6073 0 0 24.6073 500 500)" id="231216">
<g style="" vector-effect="non-scaling-stroke">
		<g transform="matrix(1 0 0 1 0 -4)" id="872036">
<circle style="stroke-width: 2; stroke-dasharray: none; stroke-linecap: round; stroke-dashoffset: 0; stroke-linejoin: round; stroke-miterlimit: 4; is-custom-font: none; font-file-url: none; fill: none; fill-rule: nonzero; opacity: 1;" cx="0" cy="0" r="7"/>
</g>
		<g transform="matrix(1 0 0 1 0 6.44)" id="750549">
<polyline style=" stroke-width: 2; stroke-dasharray: none; stroke-linecap: round; stroke-dashoffset: 0; stroke-linejoin: round; stroke-miterlimit: 4; is-custom-font: none; font-file-url: none; fill: none; fill-rule: nonzero; opacity: 1;" points="-3.79,-4.55 -5,4.56 0,1.56 5,4.56 3.79,-4.56 "/>
</g>
</g>
</g>
</svg>